<?xml version="1.0" encoding="UTF-8" standalone="no"?>
<!-- Created with Inkscape (http://www.inkscape.org/) -->

<svg
   xmlns:dc="http://purl.org/dc/elements/1.1/"
   xmlns:cc="http://creativecommons.org/ns#"
   xmlns:rdf="http://www.w3.org/1999/02/22-rdf-syntax-ns#"
   xmlns:svg="http://www.w3.org/2000/svg"
   xmlns="http://www.w3.org/2000/svg"
   xmlns:sodipodi="http://sodipodi.sourceforge.net/DTD/sodipodi-0.dtd"
   xmlns:inkscape="http://www.inkscape.org/namespaces/inkscape"
   width="210mm"
   height="297mm"
   viewBox="0 0 210 297"
   version="1.1"
   id="svg8"
   inkscape:version="0.92.3 (2405546, 2018-03-11)"
   sodipodi:docname="icon.svg">
  <defs
     id="defs2" />
  <sodipodi:namedview
     id="base"
     pagecolor="#ffffff"
     bordercolor="#666666"
     borderopacity="1.0"
     inkscape:pageopacity="0.0"
     inkscape:pageshadow="2"
     inkscape:zoom="0.061871843"
     inkscape:cx="-9380.0542"
     inkscape:cy="6941.9634"
     inkscape:document-units="mm"
     inkscape:current-layer="layer1"
     showgrid="false"
     showguides="true"
     inkscape:guide-bbox="true"
     inkscape:window-width="1895"
     inkscape:window-height="1033"
     inkscape:window-x="25"
     inkscape:window-y="0"
     inkscape:window-maximized="1" />
  <metadata
     id="metadata5">
    <rdf:RDF>
      <cc:Work
         rdf:about="">
        <dc:format>image/svg+xml</dc:format>
        <dc:type
           rdf:resource="http://purl.org/dc/dcmitype/StillImage" />
        <dc:title />
      </cc:Work>
    </rdf:RDF>
  </metadata>
  <g
     inkscape:label="Layer 1"
     inkscape:groupmode="layer"
     id="layer1">
    <rect
       style="opacity:1;fill:none;fill-opacity:1;fill-rule:nonzero;stroke:none;stroke-width:13.22916603;stroke-linecap:square;stroke-linejoin:round;stroke-miterlimit:4;stroke-dasharray:none;stroke-dashoffset:0;stroke-opacity:1"
       id="rect3867"
       width="574.5238"
       height="574.5238"
       x="622.90472"
       y="-722.0238" />
    <rect
       style="opacity:1;fill:#ffffff;fill-opacity:1;fill-rule:nonzero;stroke:none;stroke-width:29.38799858;stroke-linecap:square;stroke-linejoin:round;stroke-miterlimit:4;stroke-dasharray:none;stroke-dashoffset:0;stroke-opacity:1"
       id="rect859"
       width="719.66669"
       height="662.21429"
       x="-2028.9762"
       y="-183.78572" />
    <g
       id="g885"
       inkscape:export-filename="/exec/vscode-redis/icon/vscode-redis.png"
       inkscape:export-xdpi="5.9099998"
       inkscape:export-ydpi="5.9099998">
      <rect
         y="-1401.7142"
         x="-3471.3333"
         height="1100"
         width="1100"
         id="rect3871"
         style="opacity:1;fill:none;fill-opacity:1;fill-rule:nonzero;stroke:none;stroke-width:16.88596344;stroke-linecap:square;stroke-linejoin:round;stroke-miterlimit:4;stroke-dasharray:none;stroke-dashoffset:0;stroke-opacity:1" />
      <g
         transform="matrix(0.70089651,0,0,0.70089651,-3428.9559,-1361.5839)"
         id="g3865">
        <path
           style="fill:#a42122"
           inkscape:connector-curvature="0"
           d="m 1381.691,1058.94 c -76.136,39.689 -470.554,201.855 -554.521,245.624 -83.974,43.803 -130.616,43.376 -196.949,11.664 -66.333,-31.713 -486.059,-201.251 -561.667,-237.402 -37.793,-18.051 -57.659,-33.302 -57.659,-47.7 V 886.913 c 0,0 546.428,-118.956 634.649,-150.607 88.218,-31.647 118.815,-32.789 193.887,-5.286 75.082,27.503 523.964,108.488 598.158,135.662 0,0 -0.033,128.801 -0.033,142.167 0.01,14.266 -17.108,29.911 -55.865,50.091 z"
           id="path3825" />
        <path
           style="fill:#d82f27"
           inkscape:connector-curvature="0"
           d="m 1381.691,914.694 c -76.136,39.673 -470.554,201.856 -554.521,245.624 -83.974,43.786 -130.616,43.359 -196.949,11.646 C 563.88,1140.27 144.163,970.698 68.555,934.579 -7.054,898.444 -8.638,873.562 65.635,844.487 139.9,815.395 557.324,651.619 645.553,619.967 c 88.209,-31.634 118.816,-32.794 193.887,-5.283 75.079,27.499 467.139,183.56 541.335,210.735 74.204,27.192 77.053,49.585 0.916,89.275 z"
           id="path3827" />
        <path
           style="fill:#a42122"
           inkscape:connector-curvature="0"
           d="m 1381.691,823.782 c -76.136,39.689 -470.554,201.856 -554.521,245.642 -83.974,43.769 -130.616,43.343 -196.949,11.629 C 563.879,1049.358 144.162,879.803 68.554,843.668 30.761,825.601 10.895,810.383 10.895,795.984 V 651.746 c 0,0 546.428,-118.95 634.649,-150.602 88.218,-31.643 118.815,-32.794 193.887,-5.291 75.082,27.499 523.964,108.476 598.158,135.655 0,0 -0.033,128.799 -0.033,142.183 0.01,14.25 -17.108,29.893 -55.865,50.091 z"
           id="path3829" />
        <path
           style="fill:#d82f27"
           inkscape:connector-curvature="0"
           d="M 1381.691,679.523 C 1305.555,719.208 911.137,881.375 827.17,925.16 743.196,968.945 696.554,968.503 630.221,936.806 563.88,905.111 144.163,735.535 68.555,699.409 -7.054,663.278 -8.638,638.404 65.635,609.307 139.9,580.233 557.324,416.453 645.553,384.81 c 88.209,-31.643 118.816,-32.794 193.887,-5.291 75.079,27.498 467.139,183.543 541.335,210.727 74.204,27.191 77.053,49.591 0.916,89.277 z"
           id="path3831" />
        <path
           style="fill:#a42122"
           inkscape:connector-curvature="0"
           d="M 1381.691,579.889 C 1305.555,619.574 911.137,781.75 827.17,825.534 743.196,869.319 696.554,868.877 630.221,837.181 563.88,805.484 144.163,635.91 68.555,599.783 30.762,581.716 10.896,566.485 10.896,552.096 v -144.23 c 0,0 546.428,-118.951 634.649,-150.594 88.218,-31.652 118.815,-32.794 193.887,-5.292 75.082,27.499 523.964,108.476 598.158,135.655 0,0 -0.033,128.8 -0.033,142.174 0.01,14.243 -17.109,29.882 -55.866,50.08 z"
           id="path3833" />
        <path
           style="fill:#d82f27"
           inkscape:connector-curvature="0"
           d="M 1381.691,435.634 C 1305.555,475.319 911.137,637.494 827.17,681.276 743.196,725.049 696.554,724.618 630.221,692.919 563.888,661.213 144.162,491.66 68.554,455.529 -7.055,419.397 -8.639,394.515 65.634,365.427 139.9,336.339 557.324,172.58 645.553,140.929 c 88.209,-31.652 118.816,-32.794 193.887,-5.287 75.079,27.503 467.139,183.548 541.335,210.731 74.204,27.171 77.053,49.583 0.916,89.261 z"
           id="path3835" />
        <polygon
           style="fill:#ffffff"
           points="911.195,296.749 787.571,309.578 759.89,376.168 715.19,301.863 572.443,289.033 678.956,250.62 647.003,191.659 746.72,230.657 840.743,199.877 815.328,260.85 "
           id="polygon3837" />
        <polygon
           style="fill:#ffffff"
           points="521.786,524.113 852.398,473.375 752.509,619.808 "
           id="polygon3839" />
        <ellipse
           style="fill:#ffffff"
           cx="432.63599"
           cy="402.254"
           rx="176.70399"
           ry="68.495003"
           id="ellipse3841" />
        <polygon
           style="fill:#791514"
           points="1252.957,392.274 1057.456,469.517 1057.292,314.947 "
           id="polygon3843" />
        <polygon
           style="fill:#ad2524"
           points="1057.456,469.517 1036.235,477.818 840.825,400.575 1057.292,314.947 "
           id="polygon3845" />
      </g>
      <rect
         y="-619.37659"
         x="-2755.9082"
         height="218.59935"
         width="295.37476"
         id="rect862"
         style="opacity:1;fill:#ffffff;fill-opacity:1;fill-rule:nonzero;stroke:none;stroke-width:50.16901779;stroke-linecap:square;stroke-linejoin:round;stroke-miterlimit:4;stroke-dasharray:none;stroke-dashoffset:0;stroke-opacity:1" />
      <path
         style="fill:#0e232e;stroke-width:0.372;stroke:#2d2d2d;stroke-miterlimit:4;stroke-dasharray:none"
         inkscape:connector-curvature="0"
         d="m -2462.4798,-640.31361 h -285.6717 c -13.1491,0 -23.806,10.6569 -23.806,23.80597 v 238.0598 c 0,13.14909 10.6569,23.80598 23.806,23.80598 h 285.6717 c 13.1491,0 23.806,-10.65689 23.806,-23.80598 v -238.0598 c 0,-13.14907 -10.6569,-23.80597 -23.806,-23.80597 z m -261.8658,166.64187 47.612,-47.61198 -47.612,-47.61197 23.8061,-23.80597 71.4179,71.41794 -71.4179,71.41796 z m 190.4479,23.80598 h -95.2239 v -23.80598 h 95.2239 z"
         id="path835" />
    </g>
  </g>
</svg>
